HIERARCHY
ROOT Hips
{
	OFFSET -3.958830 18.904000 13.208200
	CHANNELS 6 Xposition Yposition Zposition Zrotation Yrotation Xrotation 
	JOINT LHipJoint
	{
		OFFSET 0.000000 0.000000 0.000000
		CHANNELS 3 Zrotation Yrotation Xrotation
		JOINT LeftUpLeg
		{
			OFFSET 1.800000 -1.400000 0.085000
			CHANNELS 3 Zrotation Yrotation Xrotation
			JOINT LeftLeg
			{
				OFFSET 2.215000 -6.000000 0.000000
				CHANNELS 3 Zrotation Yrotation Xrotation
				JOINT LeftFoot
				{
					OFFSET 2.500000 -6.900000 0.000000
					CHANNELS 3 Zrotation Yrotation Xrotation
					JOINT LeftToeBase
					{
						OFFSET 0.200000 -0.500000 1.950000
						CHANNELS 3 Zrotation Yrotation Xrotation
						End Site
						{
							OFFSET 0.000000 0.000000 0.000000
						}
					}
				}
			}
		}
	}
	JOINT RHipJoint
	{
		OFFSET 0.000000 0.000000 0.000000
		CHANNELS 3 Zrotation Yrotation Xrotation
		JOINT RightUpLeg
		{
			OFFSET -1.800000 -1.400000 0.085000
			CHANNELS 3 Zrotation Yrotation Xrotation
			JOINT RightLeg
			{
				OFFSET -2.215000 -6.000000 0.000000
				CHANNELS 3 Zrotation Yrotation Xrotation
				JOINT RightFoot
				{
					OFFSET -2.500000 -6.900000 0.000000
					CHANNELS 3 Zrotation Yrotation Xrotation
					JOINT RightToeBase
					{
						OFFSET -0.200000 -0.500000 1.950000
						CHANNELS 3 Zrotation Yrotation Xrotation
						End Site
						{
							OFFSET 0.000000 0.000000 0.000000
						}
					}
				}
			}
		}
	}
	JOINT LowerBack
	{
		OFFSET 0.000000 0.000000 0.000000
		CHANNELS 3 Zrotation Yrotation Xrotation
		JOINT Spine
		{
			OFFSET -0.087000 1.940000 -0.288900
			CHANNELS 3 Zrotation Yrotation Xrotation
			JOINT Spine1
			{
				OFFSET 0.000000 1.950000 0.060000
				CHANNELS 3 Zrotation Yrotation Xrotation
				JOINT Neck
				{
					OFFSET 0.000000 0.000000 0.000000
					CHANNELS 3 Zrotation Yrotation Xrotation
					JOINT Neck1
					{
						OFFSET 0.000000 1.600000 0.340000
						CHANNELS 3 Zrotation Yrotation Xrotation
						JOINT Head
						{
							OFFSET 0.000000 1.667000 -0.240000
							CHANNELS 3 Zrotation Yrotation Xrotation
							End Site
							{
								OFFSET 0.000000 0.000000 0.000000
							}
						}
					}
				}
				JOINT LeftShoulder
				{
					OFFSET 0.000000 0.000000 0.000000
					CHANNELS 3 Zrotation Yrotation Xrotation
					JOINT LeftArm
					{
						OFFSET 2.700000 1.550000 -0.730000
						CHANNELS 3 Zrotation Yrotation Xrotation
						JOINT LeftForeArm
						{
							OFFSET 5.450000 0.000000 0.000000
							CHANNELS 3 Zrotation Yrotation Xrotation
							JOINT LeftHand
							{
								OFFSET 3.450000 0.000000 0.000000
								CHANNELS 3 Zrotation Yrotation Xrotation
								JOINT LeftHandIndex1
								{
									OFFSET 0.750000 0.000000 0.000000
									CHANNELS 3 Zrotation Yrotation Xrotation
									End Site
									{
										OFFSET 0.000000 0.000000 0.000000
									}
								}
							}
						}
					}
				}
				JOINT RightShoulder
				{
					OFFSET 0.000000 0.000000 0.000000
					CHANNELS 3 Zrotation Yrotation Xrotation
					JOINT RightArm
					{
						OFFSET -2.700000 1.550000 -0.730000
						CHANNELS 3 Zrotation Yrotation Xrotation
						JOINT RightForeArm
						{
							OFFSET -5.450000 0.000000 0.000000
							CHANNELS 3 Zrotation Yrotation Xrotation
							JOINT RightHand
							{
								OFFSET -3.450000 0.000000 0.000000
								CHANNELS 3 Zrotation Yrotation Xrotation
								JOINT RightHandIndex1
								{
									OFFSET -0.750000 0.000000 0.000000
									CHANNELS 3 Zrotation Yrotation Xrotation
									End Site
									{
										OFFSET 0.000000 0.000000 0.000000
									}
								}
							}
						}
					}
				}
			}
		}
	}
}
MOTION
Frames: 12
Frame Time: 0.016667
-0.117780 17.705850 -1.735270 -2.140183 -37.121811 8.276273 -15.163484 12.683039 3.726258 -5.422641 -4.632351 -24.502502 -9.080988 5.100341 12.264940 -0.604756 3.020891 3.595883 0.395820 0.099220 0.299370 18.347208 -10.882467 2.652827 0.325200 -0.668139 2.285826 4.718520 -6.557826 21.474816 -0.631763 -4.986717 2.917515 0.088030 0.225970 0.081710 -3.472399 -1.457517 -7.091989 3.107842 4.256718 8.374340 -4.633906 4.671070 -1.012218 0.075670 -9.333576 -4.325236 -21.030256 15.419660 36.982665 -1.908280 9.078800 -6.880050 -8.320183 20.756745 -3.135053 -44.921641 6.683477 -10.037633 12.899618 -35.573182 -4.131862 -3.703802 2.897530 0.522450 0.074750 -0.040970 0.215250 6.804245 -12.074259 2.488804 51.152230 -8.961203 -13.947216 29.065117 61.928253 13.721081 1.887096 -1.849410 -0.239120 0.277110 -0.056570 -0.215110 
-0.070370 17.687100 -1.798400 -1.483929 -38.902060 7.711092 -15.180693 12.660706 3.786596 -5.373832 -5.023276 -26.390072 -8.530662 5.494786 15.237139 -0.598071 3.199150 3.518076 0.409780 0.120360 0.298530 18.330980 -10.872557 2.646191 0.385414 -0.618251 1.994524 4.543220 -6.441653 21.355343 -0.617359 -4.941731 2.928975 0.108160 0.239050 0.085430 -3.432789 -1.473266 -7.088844 2.315212 4.516216 8.751310 -4.801073 5.013738 -0.436190 -0.086734 -9.690412 -4.639543 -21.729894 15.824673 35.843308 -1.884800 9.055960 -7.211520 -7.597068 20.304608 -2.927674 -45.057913 5.637693 -9.675223 12.801798 -36.059629 -4.199420 -3.707800 2.915603 0.511740 0.083860 -0.046390 0.224200 6.410296 -11.176665 2.714383 50.510302 -8.250105 -13.213181 31.719718 63.208861 15.435808 1.881924 -1.891659 -0.238850 0.288770 -0.057530 -0.208550 
-0.019510 17.660950 -1.863270 -0.994733 -40.332804 7.351745 -15.203027 12.590670 3.884133 -4.890567 -5.534308 -28.955281 -8.117205 6.044837 18.756442 -0.591050 3.537141 3.382638 0.413130 0.135710 0.287740 18.321975 -10.840610 2.617345 0.409935 -0.629783 1.739502 4.302404 -6.298789 21.038854 -0.588449 -4.896724 2.942865 0.139710 0.270090 0.080430 -3.422157 -1.479761 -7.078285 1.786606 4.647791 8.943877 -4.963588 5.256658 0.332571 -0.302204 -9.993196 -4.777462 -22.076812 16.129710 34.216250 -1.972540 9.104480 -7.388370 -7.175684 19.739412 -2.785187 -44.970762 4.552260 -9.249719 12.853303 -36.639286 -4.319416 -3.731805 2.922766 0.492340 0.110230 -0.070050 0.230440 6.387785 -10.296709 2.819671 49.369170 -7.570855 -12.499838 33.628851 64.694486 16.867023 1.863429 -1.930137 -0.257320 0.313960 -0.048540 -0.205230 
0.034900 17.638320 -1.935330 -0.680074 -41.382148 6.920742 -15.235279 12.492864 4.048933 -3.895260 -6.131143 -31.900739 -8.004358 6.844453 22.909847 -0.539106 4.071504 3.157610 0.451060 0.181810 0.316340 18.304649 -10.784747 2.587855 0.325175 -0.719726 1.848818 4.074333 -6.174105 20.482402 -0.586072 -4.849111 2.951687 0.175320 0.251860 0.083290 -3.384846 -1.509061 -7.152557 1.365409 4.698307 9.687013 -5.157765 5.406783 0.743846 -0.286041 -10.094310 -4.889356 -22.195050 16.220454 33.551559 -2.524930 9.284430 -8.122430 -7.779072 18.764853 -2.882638 -43.976542 3.373145 -8.646819 13.766723 -36.757076 -4.556018 -3.728805 2.926978 0.490800 0.110580 -0.062170 0.235170 6.944465 -9.265531 2.906947 47.828271 -6.905997 -11.832390 34.529282 66.172201 17.821072 1.856203 -1.964391 -0.252780 0.311860 -0.067050 -0.213540 
0.084850 17.613620 -2.005230 -0.467908 -42.724303 6.689516 -15.273450 12.348890 4.248868 -2.557151 -6.674916 -35.057063 -7.794753 7.673375 26.954013 -0.471353 4.711256 2.893293 0.494200 0.228010 0.346240 18.291481 -10.724644 2.531262 -0.025822 -0.779098 1.979960 3.825500 -6.039441 19.776875 -0.586108 -4.801881 2.950828 0.208480 0.237780 0.103970 -3.372858 -1.491492 -7.223659 0.985155 4.847137 10.217855 -5.378400 5.643258 1.137109 -0.359187 -10.214451 -4.971691 -22.267861 16.417883 32.690217 -2.788600 9.435100 -8.888960 -8.166054 17.896706 -2.915062 -42.973000 2.281080 -8.018779 14.500856 -36.750550 -4.734312 -3.733891 2.951136 0.488040 0.113440 -0.052070 0.239110 7.437134 -8.287529 2.941933 46.294357 -6.061952 -11.078000 35.093624 66.970373 18.432422 1.849321 -1.994888 -0.237870 0.300100 -0.080330 -0.218660 
0.134540 17.596130 -2.070960 -0.590088 -44.063033 6.475910 -15.297629 12.208878 4.455747 -0.829429 -6.995152 -37.906863 -7.608942 8.492289 30.551706 -0.400940 5.371647 2.624159 0.521700 0.260640 0.369160 18.286724 -10.667162 2.501547 -0.503419 -0.934704 2.570711 3.789285 -5.979350 18.696912 -0.601228 -4.754572 2.957795 0.229390 0.215470 0.102560 -3.406833 -1.470110 -7.353274 1.148473 4.888836 11.249379 -5.790380 5.821149 1.203050 -0.381690 -10.426515 -5.332162 -22.943355 16.942156 32.502917 -2.668050 9.565790 -10.064900 -8.615818 16.863232 -2.795342 -41.804136 1.775350 -7.592977 14.808101 -36.968677 -4.830408 -3.713497 2.939186 0.510740 0.092670 -0.029800 0.236230 7.890957 -7.148329 3.109645 44.631923 -5.560907 -10.506704 36.123555 67.109136 19.109396 1.858617 -1.977635 -0.235600 0.310820 -0.086070 -0.226120 
0.182030 17.579660 -2.134580 -0.765562 -45.644594 6.491188 -15.336980 12.051488 4.672975 0.946864 -7.155995 -40.713229 -7.507968 9.250408 33.424197 -0.342442 5.982688 2.378969 0.537250 0.277190 0.382800 18.274470 -10.592388 2.457475 -1.078917 -1.037025 2.999004 3.841347 -5.921904 17.510012 -0.605208 -4.705440 2.966946 0.242720 0.202560 0.106580 -3.423029 -1.454260 -7.476482 1.108928 4.962399 12.070884 -6.045476 6.007890 1.235742 -0.382986 -10.644328 -5.679114 -23.453068 17.357422 31.936440 -2.760570 9.764260 -11.058880 -8.999339 15.816753 -2.560138 -40.815126 1.698111 -7.315554 15.260948 -37.103032 -4.961409 -3.706833 2.929278 0.527850 0.082800 -0.017570 0.229930 8.291029 -5.915059 3.215880 42.866587 -4.750796 -9.966974 35.872431 66.539192 18.855671 1.858675 -1.952677 -0.235930 0.316670 -0.082050 -0.234720 
0.224420 17.565270 -2.202700 -0.973987 -47.705252 6.628953 -15.393449 11.914338 4.868654 2.909686 -6.953290 -43.246146 -7.759342 10.099008 35.489062 -0.290670 6.551259 2.162643 0.539850 0.281440 0.389120 18.246705 -10.507930 2.401910 -1.673899 -1.057419 3.183279 3.848394 -5.826665 16.407882 -0.593814 -4.646474 2.987808 0.252450 0.206520 0.103100 -3.392337 -1.468933 -7.581460 0.628893 5.255193 12.684304 -5.893629 6.368593 1.247658 -0.420900 -10.836486 -6.014909 -23.824119 17.768993 31.180714 -2.944880 10.107320 -11.629300 -9.394350 14.711963 -2.230472 -39.798108 1.887331 -7.054616 15.453096 -36.915379 -4.965829 -3.712690 2.908971 0.535690 0.086230 -0.018890 0.224890 8.835262 -4.507157 3.289505 40.528185 -3.781788 -9.275919 35.601511 65.489875 18.473221 1.860434 -1.919708 -0.246780 0.331390 -0.075740 -0.242180 
0.259700 17.558380 -2.270370 -1.302413 -49.620669 6.875675 -15.449271 11.821740 5.019346 4.820651 -6.454132 -45.162481 -8.238699 10.850884 36.532453 -0.247028 6.963921 2.012266 0.553620 0.302010 0.396710 18.215894 -10.423189 2.358846 -1.904134 -1.079665 3.174413 3.762829 -5.705660 15.702195 -0.589266 -4.579953 3.013636 0.268700 0.211910 0.095160 -3.343032 -1.525669 -7.669557 -0.026399 5.535601 13.291432 -5.430038 6.700037 1.195668 -0.584856 -11.086939 -6.331343 -24.342752 18.073571 30.247148 -2.802860 10.187400 -12.233040 -9.818900 13.631446 -1.845743 -38.892982 2.216309 -6.850437 15.160199 -36.733905 -4.839773 -3.702183 2.895792 0.538310 0.082810 -0.014050 0.235690 9.692085 -3.034197 3.350353 37.819938 -2.997532 -8.625516 35.559279 64.489134 18.228310 1.871993 -1.889312 -0.252510 0.354050 -0.084480 -0.238870 
0.299170 17.558440 -2.335060 -1.772608 -51.417819 7.190703 -15.491179 11.747517 5.136648 6.510857 -5.832054 -46.569260 -8.706060 11.426416 36.972123 -0.243363 7.260647 1.897514 0.577050 0.327810 0.413850 18.194838 -10.363727 2.324439 -1.889441 -1.082058 3.008218 3.509370 -5.574060 15.397884 -0.593070 -4.516533 3.023565 0.290530 0.212420 0.098510 -3.332090 -1.551232 -7.737669 -0.354083 5.779893 13.945434 -5.085099 7.046539 1.279013 -0.788536 -11.370586 -6.562685 -25.015977 18.328340 29.458243 -2.696310 10.088770 -13.328230 -10.359107 12.496625 -1.532678 -38.017683 2.252273 -6.591131 14.601679 -36.243065 -4.675270 -3.694495 2.876535 0.557010 0.075190 -0.001000 0.240120 10.664716 -1.540011 3.335820 34.969016 -2.043622 -8.093153 34.527732 62.971678 17.302765 1.872473 -1.848482 -0.258160 0.375930 -0.087730 -0.240600 
0.329390 17.561830 -2.392810 -1.979658 -52.680945 7.444446 -15.541138 11.716589 5.208888 7.542897 -5.382998 -47.577312 -8.816789 11.592053 36.744655 -0.258875 7.332008 1.865583 0.580570 0.340190 0.414070 18.165872 -10.286471 2.300142 -1.660436 -1.138344 2.835153 3.172437 -5.402442 14.977648 -0.580893 -4.444837 3.046278 0.303550 0.220990 0.096680 -3.258198 -1.664114 -7.770685 -1.105287 6.026249 14.173364 -4.536444 7.326096 1.619471 -0.894293 -11.511570 -6.843590 -25.325869 18.432496 28.672365 -2.746330 10.149660 -13.751930 -10.895293 11.203392 -1.175615 -37.218785 2.246981 -6.408697 13.846069 -35.758677 -4.479602 -3.699468 2.861416 0.553530 0.081690 -0.001970 0.240550 11.534640 -0.006462 3.464666 32.384802 -1.591333 -7.806788 33.541441 61.421016 16.334468 1.871251 -1.814547 -0.262650 0.391470 -0.084540 -0.238800 
0.358120 17.567310 -2.439150 -2.346324 -53.737454 7.791904 -15.573701 11.720766 5.227993 8.142190 -5.015786 -48.114180 -8.653725 11.424528 36.008544 -0.296423 7.224802 1.896351 0.596250 0.359050 0.426990 18.145179 -10.231571 2.302613 -1.309395 -1.237867 2.735851 2.771020 -5.212339 14.432960 -0.575558 -4.372608 3.069789 0.316530 0.218480 0.098840 -3.205896 -1.772786 -7.783711 -1.566501 6.182736 14.332411 -4.107925 7.538963 2.045348 -0.932028 -11.656970 -7.153995 -25.703006 18.472341 28.015824 -2.918140 10.206430 -14.166070 -11.579597 9.782504 -0.832544 -36.318969 2.174955 -6.214010 13.122689 -34.932200 -4.269086 -3.698353 2.853211 0.552130 0.083310 0.001770 0.243290 12.405457 1.596049 3.670312 29.790723 -1.298345 -7.572673 32.544471 59.618693 15.293634 1.871220 -1.787748 -0.259580 0.396880 -0.090570 -0.240430 
